<?xml version="1.0" encoding="UTF-8"?>
<svg width="57px" height="57px" viewBox="0 0 57 57" version="1.1" xmlns="http://www.w3.org/2000/svg" xmlns:xlink="http://www.w3.org/1999/xlink">
    <!-- Generator: Sketch 54.1 (76490) - https://sketchapp.com -->
    <title>in</title>
    <desc>Created with Sketch.</desc>
    <g id="Page-1" stroke="none" stroke-width="1" fill="none" fill-rule="evenodd">
        <g id="in" fill="#FFFFFF" fill-rule="nonzero">
            <path d="M56.9856876,57 L56.9856876,56.9976257 L57,56.9976257 L57,36.099172 C57,25.8755023 54.7887306,18 42.7806073,18 C37.0079299,18 33.1340339,21.15305 31.5525111,24.1422744 L31.3855328,24.1422744 L31.3855328,18.9544624 L20,18.9544624 L20,56.9976257 L31.8554574,56.9976257 L31.8554574,38.1600511 C31.8554574,33.2001705 32.8000774,28.4041154 38.9711173,28.4041154 C45.0515118,28.4041154 45.1421572,34.0644101 45.1421572,38.4782053 L45.1421572,57 L56.9856876,57 Z" id="Path"></path>
            <polygon id="Path" points="1 19 13 19 13 57 1 57"></polygon>
            <path d="M7,0 C3.13566967,0 0,3.12104991 0,6.96736315 C0,10.8136764 3.13566967,14 7,14 C10.8643303,14 14,10.8136764 14,6.96736315 C13.9975711,3.12104991 10.8619015,1.07360541e-15 7,0 Z" id="Path"></path>
        </g>
    </g>
</svg>