<?xml version="1.0" encoding="UTF-8"?>
<svg width="63px" height="63px" viewBox="0 0 63 63" version="1.1" xmlns="http://www.w3.org/2000/svg" xmlns:xlink="http://www.w3.org/1999/xlink">
    <!-- Generator: Sketch 54.1 (76490) - https://sketchapp.com -->
    <title>instagram</title>
    <desc>Created with Sketch.</desc>
    <g id="Page-1" stroke="none" stroke-width="1" fill="none" fill-rule="evenodd">
        <g id="instagram" fill="#FFFFFF" fill-rule="nonzero">
            <path d="M17.5,0 C7.83501688,1.55431223e-15 1.55431223e-15,7.83501688 0,17.5 L0,45.5 C1.55431223e-15,55.1649831 7.83501688,63 17.5,63 L45.5,63 C55.1649831,63 63,55.1649831 63,45.5 L63,17.5 C63,7.83501688 55.1649831,1.55431223e-15 45.5,0 L17.5,0 Z M52.5,7 C54.425,7 56,8.575 56,10.5 C56,12.425 54.425,14 52.5,14 C50.575,14 49,12.425 49,10.5 C49,8.575 50.575,7 52.5,7 Z M31.5,14 C41.1649831,14 49,21.8350169 49,31.5 C49,41.1649831 41.1649831,49 31.5,49 C21.8350169,49 14,41.1649831 14,31.5 C14,21.8350169 21.8350169,14 31.5,14 L31.5,14 Z M31.4965014,21.0000006 C27.7452128,21.0012505 24.2795461,23.0036942 22.4049844,26.2530303 C20.5304226,29.5023665 20.5317564,33.5049437 22.4084832,36.7530299 C24.2852101,40.001116 27.7522105,42.0012495 31.503499,41.9999994 C37.3024885,41.9980669 42.0019318,37.2954906 41.9999994,31.4965012 C41.9980671,25.6975117 37.2954908,20.9980684 31.4965014,21.0000006 Z" id="Shape"></path>
        </g>
    </g>
</svg>