<?xml version="1.0" encoding="UTF-8"?>
<svg width="101px" height="19px" viewBox="0 0 101 19" version="1.1" xmlns="http://www.w3.org/2000/svg" xmlns:xlink="http://www.w3.org/1999/xlink">
    <!-- Generator: Sketch 54.1 (76490) - https://sketchapp.com -->
    <title>corberto</title>
    <desc>Created with Sketch.</desc>
    <g id="Page-1" stroke="none" stroke-width="1" fill="none" fill-rule="evenodd">
        <g id="home_portfolio" transform="translate(-258.000000, -70.000000)" fill="#FFFFFF" fill-rule="nonzero">
            <path d="M267.730262,83.625 L269.855262,85.75 C269.530262,86.225 269.105262,86.625 268.605262,87 C267.730262,87.625 266.505262,88.25 264.730262,88.25 C261.105262,88.25 258.230262,85.375 258.230262,81.875 C258.230262,78.375 261.105262,75.5 264.730262,75.5 C266.505262,75.5 267.730262,76.125 268.605262,76.75 C269.105262,77.125 269.530262,77.525 269.855262,78 L267.730262,80.125 C267.505262,79.85 267.230262,79.6 266.930262,79.375 C266.405262,79 265.655262,78.625 264.730262,78.625 C262.980262,78.625 261.605262,80 261.605262,81.875 C261.605262,83.75 262.980262,85.125 264.730262,85.125 C265.655262,85.125 266.405262,84.75 266.930262,84.375 C267.230262,84.15 267.505262,83.9 267.730262,83.625 Z M277.717104,85.125 C279.467104,85.125 280.842104,83.75 280.842104,81.875 C280.842104,80 279.467104,78.625 277.717104,78.625 C275.967104,78.625 274.592104,80 274.592104,81.875 C274.592104,83.75 275.967104,85.125 277.717104,85.125 Z M271.217104,81.875 C271.217104,78.375 274.092104,75.5 277.717104,75.5 C281.342104,75.5 284.217104,78.375 284.217104,81.875 C284.217104,85.375 281.342104,88.25 277.717104,88.25 C274.092104,88.25 271.217104,85.375 271.217104,81.875 Z M286.953946,88 L286.953946,75.75 L290.328946,75.75 L290.328946,77.5 L290.453946,77.5 C290.728946,77.125 291.028946,76.8 291.378946,76.5 C291.978946,76 292.878946,75.5 294.078946,75.5 L294.328946,75.5 L294.328946,79.125 L294.053946,79.075 C293.853946,79.05 293.578946,79 293.203946,79 C291.578946,79 290.328946,80.25 290.328946,82.25 L290.328946,88 L286.953946,88 Z M296.815788,88 L296.815788,70.5 L300.190788,70.5 L300.190788,77.5 L300.315788,77.5 C300.565788,77.125 300.890788,76.8 301.265788,76.5 C301.940788,76 302.865788,75.5 304.190788,75.5 C307.090788,75.5 309.690788,78.15 309.690788,81.875 C309.690788,85.625 307.090788,88.25 304.190788,88.25 C302.865788,88.25 301.940788,87.75 301.265788,87.25 C300.890788,86.95 300.565788,86.625 300.315788,86.25 L300.190788,86.25 L300.190788,88 L296.815788,88 Z M303.190788,85.125 C304.940788,85.125 306.315788,83.75 306.315788,81.875 C306.315788,80 304.940788,78.625 303.190788,78.625 C301.440788,78.625 300.065788,80 300.065788,81.875 C300.065788,83.75 301.440788,85.125 303.190788,85.125 Z M321.677631,83.875 L323.427631,86.25 C323.052631,86.625 322.602631,86.95 322.077631,87.25 C321.177631,87.75 319.877631,88.25 318.177631,88.25 C314.552631,88.25 311.677631,85.375 311.677631,81.875 C311.677631,78.375 314.552631,75.5 318.052631,75.5 C321.427631,75.5 324.177631,78.25 324.177631,81.625 C324.177631,82.1 324.127631,82.425 324.102631,82.7 L324.052631,83.125 L315.177631,83.125 C315.552631,84.25 316.552631,85.25 318.427631,85.25 C319.502631,85.25 320.277631,84.95 320.852631,84.575 C321.177631,84.375 321.452631,84.15 321.677631,83.875 Z M315.177631,80.625 L320.677631,80.625 C320.302631,79.5 319.327631,78.5 317.927631,78.5 C316.527631,78.5 315.552631,79.5 315.177631,80.625 Z M326.914473,88 L326.914473,75.75 L330.289473,75.75 L330.289473,77.5 L330.414473,77.5 C330.689473,77.125 330.989473,76.8 331.339473,76.5 C331.939473,76 332.839473,75.5 334.039473,75.5 L334.289473,75.5 L334.289473,79.125 L334.014473,79.075 C333.814473,79.05 333.539473,79 333.164473,79 C331.539473,79 330.289473,80.25 330.289473,82.25 L330.289473,88 L326.914473,88 Z M337.651315,83.75 L337.651315,79.125 L335.526315,79.125 L335.526315,76 L336.651315,76 C337.576315,76 338.026315,75.5 338.026315,74.5 L338.026315,72.25 L341.026315,72.25 L341.026315,76 L343.776315,76 L343.776315,79.125 L341.026315,79.125 L341.026315,83.25 C341.026315,84.375 341.651315,85 342.651315,85 C343.026315,85 343.351315,84.95 343.626315,84.875 C343.776315,84.85 343.901315,84.8 344.026315,84.75 L344.026315,87.875 C343.826315,87.95 343.601315,88 343.376315,88.075 C342.976315,88.175 342.401315,88.25 341.776315,88.25 C339.276315,88.25 337.651315,86.65 337.651315,83.75 Z M352.388158,85.125 C354.138158,85.125 355.513158,83.75 355.513158,81.875 C355.513158,80 354.138158,78.625 352.388158,78.625 C350.638158,78.625 349.263158,80 349.263158,81.875 C349.263158,83.75 350.638158,85.125 352.388158,85.125 Z M345.888158,81.875 C345.888158,78.375 348.763158,75.5 352.388158,75.5 C356.013158,75.5 358.888158,78.375 358.888158,81.875 C358.888158,85.375 356.013158,88.25 352.388158,88.25 C348.763158,88.25 345.888158,85.375 345.888158,81.875 Z" id="corberto"></path>
        </g>
    </g>
</svg>